<svg xmlns="http://www.w3.org/2000/svg" width="27.703" height="28.838" viewBox="0 0 27.703 28.838">
  <g id="menu-icon" transform="translate(-1731.999 -36.056)">
    <g id="menu-icon-2" data-name="menu-icon" transform="translate(1760 36) rotate(180)">
      <g id="menu-icon-3" data-name="menu-icon">
        <path id="Rectangle_2" data-name="Rectangle 2" d="M16.026-.056H3.437A2.458,2.458,0,0,1,.994-2.533h0A2.458,2.458,0,0,1,3.437-5.011H16.026a2.458,2.458,0,0,1,2.443,2.478h0A2.458,2.458,0,0,1,16.026-.056Z" fill="#fff"/>
        <path id="Rectangle_2-2" data-name="Rectangle 2" d="M25.558-12H2.742A2.459,2.459,0,0,1,.3-14.474h0a2.459,2.459,0,0,1,2.443-2.478H25.558A2.458,2.458,0,0,1,28-14.474h0A2.458,2.458,0,0,1,25.558-12Z" fill="#fff"/>
        <path id="Rectangle_2-3" data-name="Rectangle 2" d="M16.026-23.938H3.437A2.458,2.458,0,0,1,.994-26.415h0a2.458,2.458,0,0,1,2.443-2.478H16.026a2.458,2.458,0,0,1,2.443,2.478h0A2.458,2.458,0,0,1,16.026-23.938Z" fill="#fff"/>
      </g>
    </g>
    <path id="Color_Overlay" data-name="Color Overlay" d="M1743.974,64.894a2.478,2.478,0,0,1,0-4.955h12.588a2.478,2.478,0,0,1,0,4.955Zm-9.531-11.941a2.478,2.478,0,0,1,0-4.955h22.814a2.478,2.478,0,0,1,0,4.955Zm9.531-11.941a2.478,2.478,0,0,1,0-4.955h12.588a2.478,2.478,0,0,1,0,4.955Z"/>
  </g>
</svg>
